<?xml version="1.0" encoding="utf-8"?>
<!-- Generator: Adobe Illustrator 18.1.1, SVG Export Plug-In . SVG Version: 6.00 Build 0)  -->
<svg version="1.1" id="Layer_1" xmlns="http://www.w3.org/2000/svg" xmlns:xlink="http://www.w3.org/1999/xlink" x="0px" y="0px"
	 width="1400px" height="980px" viewBox="0 0 1400 980" enable-background="new 0 0 1400 980" xml:space="preserve">
<g>
	<rect y="1" fill-rule="evenodd" clip-rule="evenodd" fill="#D0AD84" width="1400" height="979"/>
</g>
<g>
	<path fill-rule="evenodd" clip-rule="evenodd" fill="#C99663" d="M1141,434.4l-3.1-11.8l-17.9-29.6c0-4.9,0-9.9,0-14.8l12-26.7
		c10.9,4.1,8.9,6.2,8.9,16.3l5.9,35.5c1.9,9.9,5.3,5.2,6.1,14.8l6.1,20.7v4.4l-18,5.9V434.4z M0,0h1400v980H0V535.8l6.2-2.2
		c9.8-6.8,8.1-11.2,13.3-22.2l16.3-45.9c0-15.2,1.7-30.2-3-44.4l-10.4-63.7c-3.2-11.5-9.6-13.3-19.2-22.2L0,332.7V0z M735,642
		c8.9,0,17.8,0,26.7,0l47.4-17.9c2.5-3.5,7.8-9.3,7.4-13.4l17.8-29.7c3.8-5.7,2.6-3.1,2.6-8.9l1.1-53.3v-7.4l-4.1-74.1
		c0-7.8,0.8-1.7-2.8-8.9l-11.8-63.7l-2.9-8.9l-23.7-43l-16.3,22.4L766.1,300H735l-10.4-18l-57.8-90.4l-136.3,34
		c-1.6,4.4-1.5,6.7-5.9,7.4L455,271.5c-8.9,14.2-19.7,38-28.1,48.9l-37,38.5l-10.4,26.7c-1.3,2.8-5.9,16.3-5.9,16.3l-8.9,22.2
		c0.3,12.9-3,14.3-3,26.7l-2.9,35.5c-1.1,3.2-3.1,5.8-3.1,7.4L357,541c0,5.9,0,11.9,0,17.8l1.6,26.7c1.4,3.3,5.8,17.5,6,17.8
		l17.8,35.5l1.5,4.4l43,16.3c10,6.4,14.7,14,23.7,13.3l78.5-8.9c7.8-3.8,19-3.3,32.6-7.4l29.6-22.2c8-4.5,5.3-3.4,10.4-10.4
		l19.3-32.6c13.1-9,5.1-2.8,14.8-7.4l7.4,10.4c1.3,3.1,1.7,6.8,4.4,7.4l26.7,7.4c7.1,6.1,2.9,4.9,8.9,10.4l16.3,8.9l5.9,4.6L735,642
		z M989.9,616.8l4.4-26.8c1.9-2.2,13.1-13,14.8-16.3l5.9-13.4c1.7-12.3,3-7.1,3-22.2l5.9-22.2c3.4-3.4,14-14.4,14.8-19.3l13.3-23.7
		c9.5,0,16.4-2.8,17.8,7.4l11.8,25.2c1,3.8,4,11.5,5.9,14.8l19.2,29.6c1.3,11.5,3,10.4,3,23.7l10.4,31.1
		c-0.8,14.3-9.8,8.9-22.2,13.3l-43-10.4l-5.9-4.4l-16.3,13.3c-5.1,2.9-5.6,4.9-10.4,6.2l-8.9,3.2c-4,0-7.9,0-11.9,0L989.9,616.8z"/>
</g>
<g>
	<path fill-rule="evenodd" clip-rule="evenodd" fill="#B27E4E" d="M343.7,636.4l-17.8-94.8l3-74l5.9-124.4l32.6-29.6l62.2,32.6
		l2.9,44.4l-5.9,59.3l23.7,62.2l-8.9,100.7l-17.8,44.3c-11.2,3.5-7.8,2.9-17.8,2.9h-11.8h-11.9L343.7,636.4z M0,0h1400v980H0V669.9
		l26.5,11.1c15.1,4.7,14.2,1,26.8,11.8l71.2-8.9c18.7-9.9,18.7-12.2,29.7-29.6l20.7-23.7l8.9-11.8l38.5-47.4L240,470.6
		c0-10.6,2.1-12.7-3-17.8l-11.9-26.7l-3.1-11.8v-32.6l-11.7-29.6L160,286.9L97.8,281l-23.7,29.7L32.6,299H20.8L0,304.9V0z
		 M1265.9,275H1247c0,4,0,6.8,0,9.7l-6,28.1v5.9l5.8,11.9l5.9-3l7.4-19.2l4.4-18.2L1265.9,275z M634.1,639.4l-47.4-38.5l-26.8-56.3
		L533,488.4v-56.3l21-44.4l18-23.7v-8.9l38.4-62.2l8.9,32.6l11.8,26.7l5.9-29.6l14.8-17.8l2.9-26.7l23.7-29.6l8.9,23.7l2.9,17.8
		l3-29.6l17.8-11.9l20.8-20.7c13.7-4.6,7.6-1.7,17.8-11.9l11.8-14.8l8.9-14.8l14.8-32.6l44.4-11.9l38.5,3l35.6-5.9l68.2,2.9
		l32.5,17.8l17.7,26.7v8.9v32.6l6.1-17.7h20.8l23.7,36h47.4l14.8,32.3c5.4,16.2,5.9,6.3,5.9,17.6l14.8,23.6c3.5,11.2,3,7.8,3,17.7
		l-11.9,29.6l17.8,56.3l3.2,8.9l-5.7,59.2v11.9l-9.1,29.6l-9,14.8l-9,38.5c-4.9,10.5-9.2,24.7-17.8,32.6l-44.5,23.7
		c-14.6,4.5-14.3,3-29.6,3l-77.1-5.9c-16-0.5-11.7-0.1-23.7,11.9l-35.6,29.6l-8.9,3l-65.2-2.9h-8.9l-65.2-12h-11.9l-41.5,6h-8.9
		l-23.7-8.9L634.1,639.4z"/>
</g>
<g>
	<linearGradient id="SVGID_1_" gradientUnits="userSpaceOnUse" x1="700" y1="-2.404067e-008" x2="700" y2="980">
		<stop  offset="0" style="stop-color:#FFFFC8;stop-opacity:0.3"/>
		<stop  offset="1" style="stop-color:#FFFFC8;stop-opacity:0"/>
	</linearGradient>
	<path fill-rule="evenodd" clip-rule="evenodd" fill="url(#SVGID_1_)" d="M542.6,0h23.7l669.2,980h-62.9L542.6,0z M164.5,0h23.7
		l131,980h-62.8L164.5,0z"/>
</g>
<g>
	<path fill-rule="evenodd" clip-rule="evenodd" fill="#69432E" d="M0,0h1400v980H233.6l192.3-29.8l130.4-38.5l44.4-17.8H660
		l100.7-53.5l112.6,5.8l77-29.7l165.9-23.7l88.9-29.6l77.1-5.9l35.6-23.7l26.7-133.3l-23.7-85.9L1297,473l-5.9-106.6l-5.9-65.2
		l-26.7-68.1l-29.6-23.7l-23.7,14.8l-5.9-35.5l-14.8,5.9l-8.9,35.5l-8.9-47.4l-20.8,17.8l-5.9-32.6l-44.4-29.6l-32.6-32.6l-38.5,5.9
		l-26.7,26.7l-14.8-15L965.2,141h-14.8l-20.8,20.9l-23.7-8.8l-29.6-2.9l-68.1-38.5L793.3,85l-68.2-17.8l-77-3l-29.6,35.5l-32.6,11.9
		c-17.5,0-22.2,4.9-41.5,8.9l-20.8,2.9l-38.5,23.7l-47.4,74l-47.4,11.9l-26.7,41.5L298.5,322L260,369.4l-5.9-23.7l-26.7-14.8
		l-14.8-23.7l-38.5,5.9l-2.9,35.5l-29.6-77l-3-8.9l-65.2-14.8l-56.1,5.9L0,268.7V0z"/>
</g>
<g>
	<linearGradient id="SVGID_2_" gradientUnits="userSpaceOnUse" x1="809.654" y1="-2.650449e-008" x2="809.654" y2="980">
		<stop  offset="0" style="stop-color:#FFFFC8;stop-opacity:0.6"/>
		<stop  offset="1" style="stop-color:#FFFFC8;stop-opacity:0"/>
	</linearGradient>
	<path fill-rule="evenodd" clip-rule="evenodd" fill="url(#SVGID_2_)" d="M756.5,0H775l625,719.3v72.6L756.5,0z M219.3,0h123
		l358,980H416.7L219.3,0z M417.7,0h37.1l547.6,980h-140L417.7,0z"/>
</g>
<g>
	<path fill-rule="evenodd" clip-rule="evenodd" fill="#D0AD84" d="M0,1h598.8L461.2,17L304.1,73.1L236,123.3l-8.9,8.8l-50.4,74
		L153,366.2l17.8,74.1l-32.6,50.3l20.8,68.1l35.6,35.5l32.6,53.3l32.6,65.2l26.7,65.2l38.5,32.6l74.1,23.7l80-14.8l88.9,32.6l77,5.9
		l88.9,23.7l65.2,18.1l62.2-2.7h71.1l112.6-12.1l53.3,32.4l88.9,32.5l58.5,30.2H0V779.3l28.5-36.9l11.3-44.4L54,647.6v-53.3
		L39.7,535L58,472.8v-56.3L43,381v-77l-11.7-59.2L0,201.2V1z M1056.7,1H1399v143l-34.6-26.7l-50.1-38.5l-8.8-2.9l-44.4-5.9
		l-29.6,23.7l-29.6-41.5l-44.4-2.9l-23.7,23.7l-32.6-53L1056.7,1z"/>
	<path fill-rule="evenodd" clip-rule="evenodd" fill="#2C2219" d="M0,1h473.1l-21.9,8.9l-83,23.5l-27.4,13.2l-36.3,17l4.4-28.9
		l15.6-17L303,27.4l-11.9,25.9l-29.6,16.3l-2.2,0.7l-26.7,41.5l-27.4,25.9l-2.2,1.5l-28.7,45.9l-4.3-31.8V151l8.7-55.5l-10.8-59.3
		l4.6,57.8l-20.6,48.1l3,43l11.1,22.2l-5.2,44.4l-11.1,24.4l-18.5,103.7l9.6-17l14.1,45.2l-14.1,61.5l-8.9-14.8l-16.3-51.1
		l-8.9-36.3l6.2,54.1l18.1,72.6v33.3l17.5,33.3l31.3,40l-1.4,31.1l8.9,17c0.2,2.5,0.9,5,0.8,7.4l8.2,41.5l3.7-22.2l-3.7-60
		l31.1,54.8l14.8,58.5l37,53.3l8.9,21.5l34.8,10.4l14.1,15.6l44.4,7.4l-73.3,20l92.6-8.9l38.5-14.8l45.2-4.4l88.1,37l-78.5,19.2
		l-265.2,34.8l-107.4-62.2L55.6,673.9l3.7-39.3l-0.7-40.7L49,528.7l11.8-52.6l3.7,12.6l-2.2-71.8l-7.4-25.2L45.2,331l2.2-48.1
		L32.6,170.3l1.4,69.6L0,196.7V1z M1081.3,1l13.2,9.3l11.9,5l2.2-9l12.6,34.8l16.3,19.2l16.3-13.3l17.9-2.9l19.4-8.9V18.9l31.7,43.7
		l15.2,15.5l17.2-13.3l21.5,2.2l37.8-1.5l-3.7-10.4l28.5,31.1l59.8,47.5V1H1081.3z"/>
</g>
<g>
	<polygon fill-rule="evenodd" clip-rule="evenodd" fill="#C99663" points="0,580.7 22.8,588.4 85.1,723.3 141.4,775.1 168.1,837.3 
		258.5,883.2 365.2,877.3 434.8,858.1 503,873 510.4,873 599.3,818.1 605.2,816.8 657.1,808 663,808 708.9,787.1 750.4,791.5 
		815.5,843.3 935.5,861 940,861 1027.4,846 1031.9,846 1125.2,812 1154.8,739.5 1203.7,723.2 1240.7,625.5 1255.5,622.5 
		1279.3,650.7 1313.3,652.2 1319.3,595.9 1350.4,548.5 1356.3,480.3 1379.9,475.9 1400,542.1 1400,980 0,980 	"/>
	<polygon fill-rule="evenodd" clip-rule="evenodd" fill="#2C2219" points="1400,548.1 1400,980 0,980 0,589.2 24,592.9 47,669.2 
		47,684.7 47,687.7 80.5,729.9 68,735.1 97,744 137.8,778.8 134.1,795.8 157,839.5 125.2,838.8 114.1,826.9 76.3,824.7 114.1,832.8 
		134.8,847.7 175.5,852.9 253.3,887 229.7,887 211.1,895.1 207.4,896.9 168.2,909 132.6,909 174.1,916.1 238.5,896.7 290.4,897.4 
		368.9,880.3 425.2,876.5 463,866.9 510.4,876.5 488.2,892.2 477.8,899 443,899 470.4,910 501.5,904 504.4,889.9 544.4,858 
		604.5,837.3 618.5,818.8 657.8,813.6 672.6,816.6 707.4,791.4 746.3,798.8 780,841 780,866.2 798.2,886.9 793.9,868.4 814,852.1 
		843.7,875.1 855.5,901 895.5,918.8 870.4,900.3 857,880.2 875.6,867.6 928.2,866.9 956.3,869.9 1030.4,852.8 1025.2,866.9 
		999.3,881.7 1026.7,871.4 1048.2,857.3 1080.7,852.8 1125.9,819.5 1114.1,866.9 1108.1,878.8 1087.4,883.9 1057.8,906.9 
		1081.5,895 1119.3,877.3 1140,845.4 1151.9,780.3 1179.3,739.5 1205.2,728.4 1198.5,766.2 1174.8,809.9 1191.9,788.4 1215.5,740.3 
		1239.3,642.5 1252.6,632.9 1276.3,654.4 1297.8,662.5 1310.4,661.8 1303,708.4 1291.9,736.6 1277,761.7 1265.2,804.7 1249.6,831.4 
		1240.7,861 1205.9,893.9 1188.1,901 1185.2,901 1145.2,929 1142.2,929 1118.5,937.9 1077.8,958 1048.2,964.6 1045.9,965.4 
		1069.7,963.2 1105.9,948.4 1157,926.1 1177.1,918.8 1188.1,911.3 1218.5,886.9 1259.3,856.6 1269.7,818.8 1286.7,790.6 
		1296.3,798.8 1309.7,777.3 1317,746.2 1331.1,729.9 1339.7,753.6 1332,787.7 1332,843.2 1338.2,810.6 1336.2,781.7 1344.4,754.4 
		1336.3,721.7 1325.2,709.9 1322.2,664.8 1338.5,637.3 1337.8,592.2 1355.6,547.7 1364.5,496.6 1377.7,482.6 	"/>
</g>
</svg>
